<svg id="tx" xmlns="http://www.w3.org/2000/svg" xmlns:xlink="http://www.w3.org/1999/xlink" width="1000" height="615.51" viewBox="0 0 1000 615.51">
  <defs>
    <linearGradient id="linear-gradient" x1="716.33" y1="97.42" x2="875.15" y2="372.51" gradientTransform="matrix(1.01, -0.01, 0.01, 0.99, -35.2, 35.2)" gradientUnits="userSpaceOnUse">
      <stop offset="0" stop-color="#fff" stop-opacity="0"/>
      <stop offset="0.02" stop-color="#f8fbfc" stop-opacity="0.17"/>
      <stop offset="0.04" stop-color="#f0f6f9" stop-opacity="0.34"/>
      <stop offset="0.07" stop-color="#e9f2f7" stop-opacity="0.5"/>
      <stop offset="0.09" stop-color="#e4eef5" stop-opacity="0.64"/>
      <stop offset="0.12" stop-color="#dfebf3" stop-opacity="0.75"/>
      <stop offset="0.16" stop-color="#dbe9f2" stop-opacity="0.84"/>
      <stop offset="0.2" stop-color="#d8e7f0" stop-opacity="0.91"/>
      <stop offset="0.25" stop-color="#d6e6f0" stop-opacity="0.96"/>
      <stop offset="0.31" stop-color="#d4e5ef" stop-opacity="0.99"/>
      <stop offset="0.51" stop-color="#d4e5ef"/>
    </linearGradient>
    <linearGradient id="linear-gradient-2" x1="485.54" y1="1.38" x2="550.23" y2="113.42" gradientTransform="matrix(1.01, -0.01, 0.01, 0.99, -35.2, 35.2)" gradientUnits="userSpaceOnUse">
      <stop offset="0" stop-color="#d4e5ef"/>
      <stop offset="0.19" stop-color="#d5e5ef" stop-opacity="0.99"/>
      <stop offset="0.32" stop-color="#d6e6f0" stop-opacity="0.95"/>
      <stop offset="0.44" stop-color="#d9e8f1" stop-opacity="0.88"/>
      <stop offset="0.55" stop-color="#ddeaf2" stop-opacity="0.79"/>
      <stop offset="0.66" stop-color="#e2eef4" stop-opacity="0.67"/>
      <stop offset="0.76" stop-color="#e9f2f7" stop-opacity="0.52"/>
      <stop offset="0.85" stop-color="#f0f6fa" stop-opacity="0.34"/>
      <stop offset="0.94" stop-color="#f9fbfd" stop-opacity="0.14"/>
      <stop offset="1" stop-color="#fff" stop-opacity="0"/>
    </linearGradient>
  </defs>
  <title>illust-approach3-tx</title>
  <polygon points="955.89 342.76 951.26 333.21 943.85 335.82 613.39 145.66 578.15 158.6 908.04 348.45 899.32 351.52 967.99 367.66 955.9 342.77 955.89 342.76" style="fill: url(#linear-gradient)"/>
  <g>
    <polyline points="667.45 491.04 667.45 518.64 389.91 350.82" style="fill: none;stroke: #719aa7;stroke-miterlimit: 10;stroke-width: 1.4993px"/>
    <polygon points="664.46 491.91 667.45 486.73 670.44 491.91 664.46 491.91" style="fill: #719aa7"/>
  </g>
  <g>
    <polygon points="536.53 134.52 571.74 121.58 465.07 60.18 473.78 57.12 405.11 40.98 421.85 75.42 429.26 72.8 536.53 134.52" style="fill: url(#linear-gradient-2)"/>
    <g>
      <path d="M460.87,65l-3.32,2.17a3,3,0,0,1-2,.4,5.86,5.86,0,0,1-2.36-.8,3.06,3.06,0,0,1-1.45-1.41c-.17-.47,0-.88.56-1.23L455.65,62l1.21.7-3.32,2.17c-.33.21-.47.44-.41.7s.33.51.79.77a2.19,2.19,0,0,0,2.45.13l3.29-2.14Z" style="fill: #719aa7"/>
      <path d="M463.45,70.41a3.57,3.57,0,0,1-1.92.57,3.76,3.76,0,0,1-2-.52,1.79,1.79,0,0,1-1-1l-1.75,1.14-1.17-.68,5.12-3.33,1.07.63-.33.27a3.67,3.67,0,0,1,1.85.52c.63.37,1,.77,1,1.19s-.26.84-.85,1.23Zm-1.1-.72q.56-.36.57-.75c0-.26-.18-.5-.56-.73a2.32,2.32,0,0,0-1.45-.32L459.27,69c-.07.31.13.6.61.88a2.27,2.27,0,0,0,1.19.3A2.54,2.54,0,0,0,462.35,69.69Z" style="fill: #719aa7"/>
      <path d="M464.28,70.81a3.55,3.55,0,0,1,1.93-.57,4,4,0,0,1,2,.53,1.64,1.64,0,0,1,.92,1L471,70.59l1.17.67L467,74.67l-1.06-.61.32-.28a3.71,3.71,0,0,1-1.84-.52,1.6,1.6,0,0,1-1-1.2C463.39,71.62,463.68,71.2,464.28,70.81Zm1.09.73q-.56.36-.57.75c0,.25.18.49.55.7a2.3,2.3,0,0,0,1.5.32l1.58-1c.08-.32-.12-.61-.6-.89a2.1,2.1,0,0,0-1.19-.3A2.54,2.54,0,0,0,465.37,71.54Z" style="fill: #719aa7"/>
      <path d="M471.28,77.18a.91.91,0,0,1,.21-.3,4,4,0,0,1-1.78-.52,2.07,2.07,0,0,1-1-1,.62.62,0,0,1,.29-.8,2.14,2.14,0,0,1,1.52-.23,6.12,6.12,0,0,1,2.09.82l.71.41.24-.15c.19-.13.27-.27.24-.43s-.21-.34-.52-.51a2.11,2.11,0,0,0-.79-.29.86.86,0,0,0-.62.09l-1.16-.68a1.63,1.63,0,0,1,.85-.21,4.34,4.34,0,0,1,1.18.18,5.39,5.39,0,0,1,1.24.53,2.54,2.54,0,0,1,1.13,1.06.72.72,0,0,1-.36.92l-1.67,1.08a1.32,1.32,0,0,0-.59.64l-.06,0Zm-.69-1.13a3.09,3.09,0,0,0,.77.3,2.15,2.15,0,0,0,.78.06l.7-.46-.63-.36a3.44,3.44,0,0,0-1.13-.46,1.11,1.11,0,0,0-.79.1c-.16.11-.21.23-.15.38A.94.94,0,0,0,470.59,76.05Z" style="fill: #719aa7"/>
      <path d="M479.55,76.33l-.9.58.92.54-.62.4-.91-.54L476,78.66c-.14.09-.2.18-.18.26s.12.19.32.31a3,3,0,0,0,.44.21l-.64.42a5.51,5.51,0,0,1-.84-.39c-.9-.53-1-1-.29-1.47l2.09-1.36-.86-.5.62-.4.85.5.9-.59Z" style="fill: #719aa7"/>
      <path d="M479.87,82.17a.74.74,0,0,1,.21-.3,3.89,3.89,0,0,1-1.78-.53,2,2,0,0,1-1-.94.63.63,0,0,1,.29-.8,2.06,2.06,0,0,1,1.53-.23,6.16,6.16,0,0,1,2.08.82l.71.41.25-.16a.4.4,0,0,0,.23-.43c0-.16-.21-.33-.52-.51a2.09,2.09,0,0,0-.79-.28.92.92,0,0,0-.62.08l-1.16-.68a1.55,1.55,0,0,1,.85-.2,3.69,3.69,0,0,1,1.18.18,5.39,5.39,0,0,1,1.24.53,2.48,2.48,0,0,1,1.13,1.06.72.72,0,0,1-.36.92l-1.66,1.08a1.33,1.33,0,0,0-.6.63l-.06,0ZM479.18,81a3,3,0,0,0,.78.3,2.3,2.3,0,0,0,.77,0l.7-.45-.63-.36a3.49,3.49,0,0,0-1.13-.47,1.11,1.11,0,0,0-.79.11.3.3,0,0,0-.15.38A.94.94,0,0,0,479.18,81Z" style="fill: #719aa7"/>
      <path d="M488.45,84.92a3.43,3.43,0,0,1-1.9.58,3.78,3.78,0,0,1-2-.53c-.61-.35-.93-.73-.95-1.13l-.46.23-1.06-.62L487.33,80l1.16.68L486.59,82a3.62,3.62,0,0,1,1.78.51q.94.56,1,1.2c0,.42-.26.83-.86,1.22Zm-1.09-.72c.4-.26.6-.51.6-.76s-.18-.48-.56-.7a2.32,2.32,0,0,0-1.54-.31l-1.52,1c-.11.33.08.65.59.94a2.17,2.17,0,0,0,1.14.3,2.3,2.3,0,0,0,1.18-.39Z" style="fill: #719aa7"/>
      <path d="M488.86,87.39l-1.16-.68,5.24-3.41,1.17.68Z" style="fill: #719aa7"/>
      <path d="M492.35,89.5a2.53,2.53,0,0,1-1.3-1.37c-.13-.48.09-.9.64-1.26l.1-.06a3.16,3.16,0,0,1,1.29-.47,4.34,4.34,0,0,1,1.52,0,4.89,4.89,0,0,1,1.45.55c.71.41,1.09.83,1.16,1.26s-.2.84-.79,1.23l-.33.21-3.4-2a.68.68,0,0,0-.29.72,1.34,1.34,0,0,0,.68.73,3.49,3.49,0,0,0,1.77.46l.2.64a4.52,4.52,0,0,1-1.34-.15A5.5,5.5,0,0,1,492.35,89.5Zm3-2.14a2.07,2.07,0,0,0-1-.29,2.26,2.26,0,0,0-1,.21l2.22,1.29.07,0c.25-.2.35-.39.31-.59S495.7,87.55,495.38,87.36Z" style="fill: #719aa7"/>
      <path d="M499.88,92.93l3.18,1.84-.7.45L498,92.68l5-3.24,1.22.71Z" style="fill: #719aa7"/>
      <path d="M504.42,96.42l-1.16-.68,3.69-2.4,1.17.68Zm3.42-3.75a.83.83,0,0,1,.49-.11,1.37,1.37,0,0,1,.61.2.68.68,0,0,1,.37.37.28.28,0,0,1-.15.31.83.83,0,0,1-.49.1,1.37,1.37,0,0,1-.61-.2c-.21-.12-.34-.24-.36-.36A.26.26,0,0,1,507.84,92.67Z" style="fill: #719aa7"/>
      <path d="M506.1,97.4l3.08-2-.79-.46.61-.4.8.46.33-.22a2.3,2.3,0,0,1,1.43-.34,3.82,3.82,0,0,1,1.68.57,3.35,3.35,0,0,1,.59.42l-.67.4a3.38,3.38,0,0,0-.42-.28,1.31,1.31,0,0,0-1.45-.08l-.33.21,1.06.61-.61.4-1.06-.61-3.08,2Z" style="fill: #719aa7"/>
      <path d="M511.4,100.55a2.52,2.52,0,0,1-1.3-1.36,1.1,1.1,0,0,1,.63-1.26l.1-.07a3.16,3.16,0,0,1,1.29-.47,4.34,4.34,0,0,1,1.52,0,4.67,4.67,0,0,1,1.45.54c.71.41,1.1.84,1.16,1.27s-.19.84-.78,1.22l-.33.22-3.4-2a.65.65,0,0,0-.29.72,1.32,1.32,0,0,0,.68.72,3.34,3.34,0,0,0,1.77.46l.2.64a4,4,0,0,1-1.35-.15A5,5,0,0,1,511.4,100.55Zm3-2.14a2.14,2.14,0,0,0-1-.29,2.36,2.36,0,0,0-1,.21l2.22,1.29.06,0c.25-.19.36-.39.32-.59S514.75,98.6,514.42,98.41Z" style="fill: #719aa7"/>
      <path d="M518.37,103.28a.23.23,0,0,0,.08-.37,3.11,3.11,0,0,0-.64-.63,4.61,4.61,0,0,1-.77-.72c-.39-.47-.39-.83,0-1.07a2,2,0,0,1,1.37-.19,4.89,4.89,0,0,1,1.76.62,2.81,2.81,0,0,1,1.18,1.09.65.65,0,0,1-.28.89l-1.16-.68a.32.32,0,0,0,.14-.4,1,1,0,0,0-.5-.49,2.24,2.24,0,0,0-.75-.28.76.76,0,0,0-.58.08.21.21,0,0,0-.08.32,3.78,3.78,0,0,0,.7.67,5,5,0,0,1,.83.79.92.92,0,0,1,.22.57.61.61,0,0,1-.31.44,2,2,0,0,1-1.39.19,5,5,0,0,1-1.83-.69,3.54,3.54,0,0,1-1-.76,1.21,1.21,0,0,1-.33-.75.67.67,0,0,1,.34-.56l1.14.66a.34.34,0,0,0-.14.47,1.42,1.42,0,0,0,.6.55,2.46,2.46,0,0,0,.83.33A.81.81,0,0,0,518.37,103.28Z" style="fill: #719aa7"/>
      <path d="M525.59,103.05l-.9.59.92.53-.62.4-.92-.53L522,105.38c-.14.09-.2.18-.19.26s.13.19.33.31a3,3,0,0,0,.44.21l-.64.42a6.15,6.15,0,0,1-.85-.39c-.89-.52-1-1-.28-1.47l2.09-1.36-.86-.5.62-.4.85.5.9-.59Z" style="fill: #719aa7"/>
      <path d="M525.81,107.37l3.56-1,1.24.72-6.31,1.57a3.38,3.38,0,0,1-2.55-.33,3.12,3.12,0,0,1-.5-.36l.65-.42.21.13a2.43,2.43,0,0,0,.78.32,1.85,1.85,0,0,0,.73,0l.49-.11,1.85-3.45,1.25.73Z" style="fill: #719aa7"/>
      <path d="M528.83,110.59l-1.16-.68,5.24-3.41,1.16.68Z" style="fill: #719aa7"/>
      <path d="M532.32,112.7a2.53,2.53,0,0,1-1.3-1.37,1.12,1.12,0,0,1,.63-1.26l.11-.07a3.27,3.27,0,0,1,1.28-.47,4.65,4.65,0,0,1,1.53,0,4.89,4.89,0,0,1,1.45.55c.7.41,1.09.83,1.16,1.26s-.2.84-.79,1.22l-.33.22-3.4-2a.67.67,0,0,0-.29.72,1.36,1.36,0,0,0,.68.73,3.38,3.38,0,0,0,1.77.45l.2.65a4.59,4.59,0,0,1-1.35-.15A5.44,5.44,0,0,1,532.32,112.7Zm3-2.14a2.08,2.08,0,0,0-1-.3,2.27,2.27,0,0,0-1,.22l2.22,1.29.07,0c.25-.2.35-.4.31-.59A1,1,0,0,0,535.35,110.56Z" style="fill: #719aa7"/>
      <path d="M458.1,80.14l3.74-1.08,1.2.7-5.49,1.35-1-.58,1.88-3.46,1.21.7Z" style="fill: #719aa7"/>
      <path d="M461.32,83.3l-1.17-.68,3.7-2.4,1.16.68Zm3.42-3.75a.83.83,0,0,1,.49-.11,1.37,1.37,0,0,1,.61.2.8.8,0,0,1,.37.37.28.28,0,0,1-.15.31.76.76,0,0,1-.49.1,1.37,1.37,0,0,1-.61-.2c-.22-.12-.34-.24-.37-.36A.27.27,0,0,1,464.74,79.55Z" style="fill: #719aa7"/>
      <path d="M465.7,85.84a.74.74,0,0,1,.21-.3,4,4,0,0,1-1.78-.52,2.07,2.07,0,0,1-1-1,.62.62,0,0,1,.29-.8A2.08,2.08,0,0,1,465,83a6.08,6.08,0,0,1,2.08.82l.72.41.24-.16c.19-.12.27-.26.23-.43s-.2-.33-.51-.51a2.15,2.15,0,0,0-.79-.28.92.92,0,0,0-.62.08l-1.17-.67a1.6,1.6,0,0,1,.86-.21,4,4,0,0,1,1.18.18,5.39,5.39,0,0,1,1.24.53,2.54,2.54,0,0,1,1.13,1.06.72.72,0,0,1-.36.92l-1.67,1.08a1.35,1.35,0,0,0-.59.63l-.06,0ZM465,84.71a3.09,3.09,0,0,0,.77.3,2.69,2.69,0,0,0,.78.06l.7-.46-.63-.36a3.67,3.67,0,0,0-1.14-.47,1.09,1.09,0,0,0-.78.11.29.29,0,0,0-.15.38A.94.94,0,0,0,465,84.71Z" style="fill: #719aa7"/>
      <path d="M474.8,87.07a4,4,0,0,1,1.92.54c1.11.64,1.22,1.26.34,1.85L474.64,91l-1.16-.67,2.38-1.55c.25-.17.36-.33.31-.49a1.07,1.07,0,0,0-.53-.5,2.37,2.37,0,0,0-1.49-.32l-2.64,1.72-1.16-.68,5.24-3.41,1.16.67Z" style="fill: #719aa7"/>
      <path d="M478.93,93.52a.74.74,0,0,1,.21-.3,3.89,3.89,0,0,1-1.78-.53,2,2,0,0,1-1-.94.62.62,0,0,1,.29-.8,2,2,0,0,1,1.52-.23,6.08,6.08,0,0,1,2.08.82L481,92l.24-.16a.41.41,0,0,0,.24-.43c0-.16-.21-.33-.52-.51a2.07,2.07,0,0,0-.8-.28.9.9,0,0,0-.61.08L478.39,90a1.61,1.61,0,0,1,.86-.2,3.69,3.69,0,0,1,1.18.18,5.39,5.39,0,0,1,1.24.53,2.54,2.54,0,0,1,1.13,1.06.73.73,0,0,1-.36.92l-1.67,1.08a1.35,1.35,0,0,0-.59.63l-.06,0Zm-.69-1.13a3.09,3.09,0,0,0,.77.3,2.35,2.35,0,0,0,.78,0l.7-.45-.63-.36a3.44,3.44,0,0,0-1.14-.47,1.09,1.09,0,0,0-.78.11.29.29,0,0,0-.15.38A.94.94,0,0,0,478.24,92.39Z" style="fill: #719aa7"/>
      <path d="M486.8,94.47a5,5,0,0,0-.45-.29,2.25,2.25,0,0,0-1.52-.34l-2.52,1.64-1.17-.68,3.69-2.4,1.12.65-.39.28a2.85,2.85,0,0,1,1.66.37,2.08,2.08,0,0,1,.36.27Z" style="fill: #719aa7"/>
      <path d="M486.26,95.47a3.52,3.52,0,0,1,1.92-.57,3.83,3.83,0,0,1,2,.53,1.7,1.7,0,0,1,.93,1L493,95.24l1.17.68-5.25,3.41-1.05-.62.32-.28a3.67,3.67,0,0,1-1.84-.51,1.63,1.63,0,0,1-1-1.2C485.37,96.27,485.66,95.86,486.26,95.47Zm1.09.72c-.37.24-.57.49-.57.75s.17.49.55.71a2.36,2.36,0,0,0,1.5.31l1.58-1c.08-.31-.12-.61-.6-.89a2.12,2.12,0,0,0-1.19-.3A2.54,2.54,0,0,0,487.35,96.19Z" style="fill: #719aa7"/>
      <path d="M495.86,101.94l3.37-1.18,1.14.66L495.26,103l-1-.56,1.42-2.29-3.63,1-1-.56,2.28-3.22,1.13.66-1.68,2.13,3.59-1,.88.51Z" style="fill: #719aa7"/>
      <path d="M500.56,106.08a.74.74,0,0,1,.21-.3,3.89,3.89,0,0,1-1.77-.53,2,2,0,0,1-1-1,.61.61,0,0,1,.29-.79,2.08,2.08,0,0,1,1.52-.24,6.52,6.52,0,0,1,2.08.82l.72.42.24-.16a.4.4,0,0,0,.23-.43q0-.24-.51-.51a2.35,2.35,0,0,0-.8-.29.94.94,0,0,0-.61.09l-1.17-.68a1.57,1.57,0,0,1,.85-.2,3.74,3.74,0,0,1,1.19.18,5.58,5.58,0,0,1,1.24.53,2.49,2.49,0,0,1,1.13,1.06.73.73,0,0,1-.36.92l-1.67,1.08a1.44,1.44,0,0,0-.6.63l-.05,0Zm-.68-1.14a2.47,2.47,0,0,0,.77.3,2.12,2.12,0,0,0,.78.06l.69-.45-.62-.37a3.71,3.71,0,0,0-1.14-.46,1.09,1.09,0,0,0-.78.11.31.31,0,0,0-.16.38A1,1,0,0,0,499.88,104.94Z" style="fill: #719aa7"/>
      <path d="M508.44,107a5,5,0,0,0-.45-.29,2.26,2.26,0,0,0-1.52-.34L504,108l-1.17-.68,3.69-2.4,1.11.65-.38.28a2.84,2.84,0,0,1,1.65.37,1.54,1.54,0,0,1,.37.27Z" style="fill: #719aa7"/>
      <path d="M508.46,110.74a2.52,2.52,0,0,1-1.3-1.36,1.12,1.12,0,0,1,.63-1.26l.1-.07a3.16,3.16,0,0,1,1.29-.47,4.34,4.34,0,0,1,1.52,0,4.77,4.77,0,0,1,1.45.54c.71.41,1.1.84,1.16,1.27s-.19.84-.78,1.22l-.34.22-3.39-2a.65.65,0,0,0-.29.72,1.32,1.32,0,0,0,.68.72,3.34,3.34,0,0,0,1.77.46l.2.64a4,4,0,0,1-1.35-.15A5.28,5.28,0,0,1,508.46,110.74Zm3-2.14a2.18,2.18,0,0,0-1-.29,2.36,2.36,0,0,0-1,.21l2.22,1.29.06,0c.25-.19.36-.39.32-.59S511.81,108.79,511.48,108.6Z" style="fill: #719aa7"/>
    </g>
  </g>
  <g>
    <path d="M765.24,239.89l-3.32,2.16a3,3,0,0,1-2,.4,5.75,5.75,0,0,1-2.37-.8,3,3,0,0,1-1.45-1.4c-.16-.47,0-.88.56-1.23l3.32-2.16,1.21.7-3.32,2.16c-.33.21-.47.45-.4.7s.32.51.78.78a2.23,2.23,0,0,0,2.45.13l3.29-2.14Z" style="fill: #719aa7"/>
    <path d="M767.82,245.27a3.47,3.47,0,0,1-1.92.58,3.77,3.77,0,0,1-2-.53,1.79,1.79,0,0,1-1-1l-1.75,1.14-1.16-.68,5.11-3.33,1.07.63-.32.27a3.74,3.74,0,0,1,1.84.52c.63.37,1,.77,1,1.2s-.26.83-.85,1.22Zm-1.09-.72a1,1,0,0,0,.56-.75c0-.26-.17-.5-.56-.72a2.27,2.27,0,0,0-1.45-.33l-1.63,1.07c-.08.31.12.6.6.88a2.1,2.1,0,0,0,1.19.3A2.61,2.61,0,0,0,766.73,244.55Z" style="fill: #719aa7"/>
    <path d="M768.65,245.68a3.55,3.55,0,0,1,1.93-.57,3.88,3.88,0,0,1,2,.53,1.65,1.65,0,0,1,.92,1l1.89-1.23,1.17.68-5.24,3.41-1.06-.61.33-.29a3.71,3.71,0,0,1-1.85-.51,1.63,1.63,0,0,1-1-1.2C767.77,246.48,768.05,246.07,768.65,245.68Zm1.1.72c-.38.25-.57.5-.58.75s.18.49.55.71a2.29,2.29,0,0,0,1.5.31l1.58-1c.08-.31-.12-.61-.59-.89a2.15,2.15,0,0,0-1.2-.3A2.48,2.48,0,0,0,769.75,246.4Z" style="fill: #719aa7"/>
    <path d="M775.65,252.05a.83.83,0,0,1,.21-.31,3.88,3.88,0,0,1-1.78-.52,2,2,0,0,1-1-.95.61.61,0,0,1,.29-.79,2.11,2.11,0,0,1,1.53-.24,6.61,6.61,0,0,1,2.08.82l.71.42.24-.16a.4.4,0,0,0,.24-.43c0-.16-.21-.33-.52-.51a2.3,2.3,0,0,0-.79-.29.91.91,0,0,0-.62.09l-1.16-.68a1.55,1.55,0,0,1,.85-.2,4,4,0,0,1,1.18.17,5.42,5.42,0,0,1,1.24.54,2.43,2.43,0,0,1,1.13,1.06c.15.35,0,.65-.36.91l-1.66,1.09a1.3,1.3,0,0,0-.6.63l-.06,0Zm-.69-1.14a2.57,2.57,0,0,0,.77.3,2.15,2.15,0,0,0,.78.06l.7-.45-.63-.37a3.67,3.67,0,0,0-1.13-.46,1,1,0,0,0-.78.11.3.3,0,0,0-.16.38A.93.93,0,0,0,775,250.91Z" style="fill: #719aa7"/>
    <path d="M783.92,251.19l-.9.59.92.53-.62.4-.91-.53-2.06,1.34c-.15.09-.21.18-.19.27s.12.19.32.3a4.71,4.71,0,0,0,.45.22l-.64.41a5.65,5.65,0,0,1-.85-.39c-.9-.52-1-1-.29-1.47l2.09-1.36-.86-.5.62-.39.85.49.9-.58Z" style="fill: #719aa7"/>
    <path d="M784.24,257a.91.91,0,0,1,.21-.3,3.93,3.93,0,0,1-1.77-.52,2.05,2.05,0,0,1-1-.95.64.64,0,0,1,.29-.8,2.16,2.16,0,0,1,1.53-.23,6.38,6.38,0,0,1,2.08.82l.71.41.25-.15c.19-.13.27-.27.23-.43s-.21-.34-.51-.51a2.22,2.22,0,0,0-.8-.29.83.83,0,0,0-.61.09l-1.17-.68a1.66,1.66,0,0,1,.85-.21,4.41,4.41,0,0,1,1.19.18A5.51,5.51,0,0,1,787,254a2.54,2.54,0,0,1,1.13,1.06.7.7,0,0,1-.36.92l-1.66,1.08a1.4,1.4,0,0,0-.6.64l-.06,0Zm-.68-1.13a2.94,2.94,0,0,0,.77.3,2.12,2.12,0,0,0,.78.06l.69-.46-.63-.36A3.44,3.44,0,0,0,784,255a1.07,1.07,0,0,0-.78.1.31.31,0,0,0-.16.38A.93.93,0,0,0,783.56,255.9Z" style="fill: #719aa7"/>
    <path d="M792.83,259.79a3.66,3.66,0,0,1-1.91.58,3.79,3.79,0,0,1-2-.54c-.61-.35-.92-.72-.95-1.13l-.46.23-1-.61,5.24-3.41,1.16.67-1.9,1.24a3.63,3.63,0,0,1,1.78.52c.64.36,1,.76,1,1.19s-.26.84-.86,1.23Zm-1.1-.72c.4-.27.6-.52.6-.76s-.18-.48-.56-.7a2.26,2.26,0,0,0-1.54-.31l-1.52,1c-.11.33.08.64.59.93a2.09,2.09,0,0,0,1.14.31,2.38,2.38,0,0,0,1.19-.4Z" style="fill: #719aa7"/>
    <path d="M793.24,262.25l-1.17-.67,5.24-3.42,1.17.68Z" style="fill: #719aa7"/>
    <path d="M796.73,264.36a2.54,2.54,0,0,1-1.31-1.36,1.12,1.12,0,0,1,.64-1.26l.1-.07a3.16,3.16,0,0,1,1.29-.47,4.34,4.34,0,0,1,1.52.05,4.61,4.61,0,0,1,1.45.54c.71.41,1.09.84,1.16,1.27s-.2.84-.78,1.22l-.34.22-3.39-2a.67.67,0,0,0-.3.72,1.34,1.34,0,0,0,.69.72,3.43,3.43,0,0,0,1.76.46l.2.64a4,4,0,0,1-1.34-.15A5.28,5.28,0,0,1,796.73,264.36Zm3-2.14a2.18,2.18,0,0,0-1-.29,2.41,2.41,0,0,0-1,.21l2.23,1.29.06,0c.25-.19.36-.39.31-.59S800.07,262.41,799.75,262.22Z" style="fill: #719aa7"/>
    <path d="M804.26,267.79l3.17,1.85-.7.45-4.38-2.55,5-3.23,1.22.7Z" style="fill: #719aa7"/>
    <path d="M808.79,271.28l-1.16-.67,3.69-2.41,1.17.68Zm3.42-3.75a.83.83,0,0,1,.49-.1,1.32,1.32,0,0,1,.62.2q.31.18.36.36a.27.27,0,0,1-.15.31.81.81,0,0,1-.49.11,1.39,1.39,0,0,1-.61-.21q-.31-.18-.36-.36A.27.27,0,0,1,812.21,267.53Z" style="fill: #719aa7"/>
    <path d="M810.48,272.26l3.07-2-.79-.46.62-.4.79.46.34-.22a2.22,2.22,0,0,1,1.43-.34,3.94,3.94,0,0,1,1.67.56,4,4,0,0,1,.6.42l-.68.41a3.38,3.38,0,0,0-.42-.28,1.31,1.31,0,0,0-1.45-.09l-.32.21,1,.62-.61.4-1.06-.62-3.08,2Z" style="fill: #719aa7"/>
    <path d="M815.77,275.42a2.53,2.53,0,0,1-1.3-1.37,1.12,1.12,0,0,1,.63-1.26l.11-.07a3.21,3.21,0,0,1,1.28-.47,4.59,4.59,0,0,1,1.52.05,4.84,4.84,0,0,1,1.46.55c.7.41,1.09.83,1.15,1.26s-.19.84-.78,1.22l-.33.22-3.4-2a.67.67,0,0,0-.29.72,1.36,1.36,0,0,0,.68.73,3.36,3.36,0,0,0,1.77.45l.2.65a4.59,4.59,0,0,1-1.35-.15A5.44,5.44,0,0,1,815.77,275.42Zm3-2.14a2.08,2.08,0,0,0-1-.3,2.27,2.27,0,0,0-1,.22l2.22,1.29.06,0c.26-.2.36-.39.32-.59S819.12,273.47,818.8,273.28Z" style="fill: #719aa7"/>
    <path d="M822.75,278.15a.25.25,0,0,0,.08-.37,3.24,3.24,0,0,0-.65-.63,4.61,4.61,0,0,1-.77-.73c-.38-.46-.38-.82,0-1.07a2,2,0,0,1,1.36-.19,4.74,4.74,0,0,1,1.76.63,2.8,2.8,0,0,1,1.18,1.08.65.65,0,0,1-.28.89l-1.16-.68a.31.31,0,0,0,.15-.4,1.1,1.1,0,0,0-.51-.49,2.24,2.24,0,0,0-.75-.28.81.81,0,0,0-.58.08.21.21,0,0,0-.07.32,3.2,3.2,0,0,0,.7.67,5.26,5.26,0,0,1,.82.79.86.86,0,0,1,.22.57.59.59,0,0,1-.31.44,2,2,0,0,1-1.39.19,5.34,5.34,0,0,1-1.83-.68,3.72,3.72,0,0,1-1-.77,1.11,1.11,0,0,1-.32-.74.66.66,0,0,1,.33-.57l1.14.66a.36.36,0,0,0-.14.48,1.41,1.41,0,0,0,.6.54,2.55,2.55,0,0,0,.83.33A.85.85,0,0,0,822.75,278.15Z" style="fill: #719aa7"/>
    <path d="M830,277.92l-.9.58.92.53-.62.4-.91-.53-2.07,1.34q-.21.13-.18.27c0,.08.12.19.32.3a4.51,4.51,0,0,0,.44.22l-.64.41a6,6,0,0,1-.84-.39c-.9-.52-1-1-.29-1.47l2.09-1.36-.86-.49.62-.4.85.49.9-.58Z" style="fill: #719aa7"/>
    <path d="M830.18,282.23l3.56-1,1.25.72-6.32,1.57a3.38,3.38,0,0,1-2.55-.33,3.21,3.21,0,0,1-.5-.37l.65-.42.21.14a2.38,2.38,0,0,0,.78.31,1.74,1.74,0,0,0,.74,0l.48-.1,1.85-3.46,1.26.74Z" style="fill: #719aa7"/>
    <path d="M833.21,285.45l-1.17-.68,5.24-3.41,1.17.68Z" style="fill: #719aa7"/>
    <path d="M836.7,287.56a2.52,2.52,0,0,1-1.31-1.37c-.13-.48.09-.9.64-1.26l.1-.06a3.16,3.16,0,0,1,1.29-.47,4.12,4.12,0,0,1,1.52.05,4.61,4.61,0,0,1,1.45.54c.71.41,1.09.83,1.16,1.27s-.2.84-.79,1.22l-.33.22-3.39-2a.66.66,0,0,0-.3.72,1.32,1.32,0,0,0,.68.72,3.49,3.49,0,0,0,1.77.46l.2.64a4.52,4.52,0,0,1-1.34-.15A5.28,5.28,0,0,1,836.7,287.56Zm3-2.14a2.07,2.07,0,0,0-1-.29,2.39,2.39,0,0,0-1,.21l2.23,1.29.06,0a.61.61,0,0,0,.31-.59C840.22,285.8,840,285.61,839.72,285.42Z" style="fill: #719aa7"/>
    <path d="M767.24,257.77l3.74-1.08,1.21.7-5.5,1.36-1-.59,1.88-3.46,1.21.7Z" style="fill: #719aa7"/>
    <path d="M770.46,260.93l-1.16-.67,3.69-2.41,1.17.68Zm3.42-3.74a.76.76,0,0,1,.49-.11,1.26,1.26,0,0,1,.61.2c.22.12.34.24.37.36a.27.27,0,0,1-.15.31.83.83,0,0,1-.49.11,1.39,1.39,0,0,1-.61-.21q-.33-.18-.36-.36A.26.26,0,0,1,773.88,257.19Z" style="fill: #719aa7"/>
    <path d="M774.84,263.47a.91.91,0,0,1,.21-.3,4,4,0,0,1-1.78-.52,2,2,0,0,1-1-.95.63.63,0,0,1,.29-.8,2.14,2.14,0,0,1,1.52-.23,6.34,6.34,0,0,1,2.09.82l.71.41.24-.15c.19-.13.27-.27.24-.43s-.21-.34-.52-.51a2.11,2.11,0,0,0-.79-.29.86.86,0,0,0-.62.09l-1.16-.68a1.63,1.63,0,0,1,.85-.21,4.34,4.34,0,0,1,1.18.18,5.39,5.39,0,0,1,1.24.53,2.54,2.54,0,0,1,1.13,1.06.71.71,0,0,1-.36.92l-1.66,1.08a1.3,1.3,0,0,0-.6.64l-.06,0Zm-.69-1.13a3.09,3.09,0,0,0,.77.3,2.15,2.15,0,0,0,.78.06l.7-.46-.63-.36a3.44,3.44,0,0,0-1.13-.46,1.11,1.11,0,0,0-.79.1c-.15.11-.21.23-.15.38A.94.94,0,0,0,774.15,262.34Z" style="fill: #719aa7"/>
    <path d="M783.42,267.22a.24.24,0,0,0,.08-.37,3,3,0,0,0-.65-.63,6.26,6.26,0,0,1-.77-.72q-.57-.71,0-1.08a2,2,0,0,1,1.37-.19,4.8,4.8,0,0,1,1.76.63,2.66,2.66,0,0,1,1.17,1.09.63.63,0,0,1-.27.88l-1.17-.67a.32.32,0,0,0,.15-.41,1.11,1.11,0,0,0-.5-.49,2.43,2.43,0,0,0-.76-.28.82.82,0,0,0-.58.08.22.22,0,0,0-.07.33,4.15,4.15,0,0,0,.7.67,4.48,4.48,0,0,1,.82.79.9.9,0,0,1,.23.57.6.6,0,0,1-.32.44,2,2,0,0,1-1.39.18,5.14,5.14,0,0,1-1.83-.68,3.65,3.65,0,0,1-1-.77,1.13,1.13,0,0,1-.33-.74.67.67,0,0,1,.34-.56l1.13.65a.37.37,0,0,0-.14.48,1.52,1.52,0,0,0,.61.55,2.69,2.69,0,0,0,.82.32A.78.78,0,0,0,783.42,267.22Z" style="fill: #719aa7"/>
    <path d="M786.8,270.5a2.53,2.53,0,0,1-1.3-1.37,1.12,1.12,0,0,1,.63-1.26l.1-.06a3.16,3.16,0,0,1,1.29-.47,4.33,4.33,0,0,1,1.52,0,4.84,4.84,0,0,1,1.46.55c.7.41,1.09.83,1.15,1.26s-.19.84-.78,1.23l-.33.21-3.4-2a.65.65,0,0,0-.29.72,1.3,1.3,0,0,0,.68.73,3.46,3.46,0,0,0,1.77.46l.2.64a4.59,4.59,0,0,1-1.35-.15A5.28,5.28,0,0,1,786.8,270.5Zm3-2.14a2,2,0,0,0-1-.29,2.23,2.23,0,0,0-1,.21l2.22,1.29.06,0c.25-.2.36-.39.32-.59S790.15,268.55,789.82,268.36Z" style="fill: #719aa7"/>
    <path d="M795.51,271.86a3.73,3.73,0,0,0-.44-.29,2.23,2.23,0,0,0-1.52-.35L791,272.87l-1.16-.68,3.69-2.4,1.11.64-.38.29a2.76,2.76,0,0,1,1.65.36,1.87,1.87,0,0,1,.37.27Z" style="fill: #719aa7"/>
    <path d="M796.2,274.58l3.74-1.08,1.21.69-5.5,1.36-1-.59,1.88-3.45,1.21.7Z" style="fill: #719aa7"/>
    <path d="M799.42,277.74l-1.17-.68,3.7-2.4,1.16.68Zm3.42-3.75a.81.81,0,0,1,.49-.11,1.37,1.37,0,0,1,.61.2c.21.13.33.25.36.37a.27.27,0,0,1-.14.31.76.76,0,0,1-.49.1,1.45,1.45,0,0,1-.62-.2q-.31-.18-.36-.36A.27.27,0,0,1,802.84,274Z" style="fill: #719aa7"/>
    <path d="M803.42,279.33a2.18,2.18,0,0,0,.91.3,1.18,1.18,0,0,0,.75-.11l1.1.64a2.1,2.1,0,0,1-.95.24,3.94,3.94,0,0,1-1.24-.14,4.65,4.65,0,0,1-1.22-.49,2.3,2.3,0,0,1-1.23-1.33c-.09-.46.16-.89.75-1.27l.09-.06a3.34,3.34,0,0,1,2-.51,4.84,4.84,0,0,1,2.24.67,2.35,2.35,0,0,1,1.12,1.13.83.83,0,0,1-.39,1l-1.1-.64a.45.45,0,0,0,.21-.51,1,1,0,0,0-.52-.56,2.12,2.12,0,0,0-2.36.08l-.14.09c-.4.26-.59.51-.59.76S803,279.11,803.42,279.33Z" style="fill: #719aa7"/>
    <path d="M808.06,282.84a2.53,2.53,0,0,1-1.3-1.37,1.12,1.12,0,0,1,.63-1.26l.1-.07a3.15,3.15,0,0,1,1.29-.46,4.33,4.33,0,0,1,1.52,0,4.79,4.79,0,0,1,1.45.55c.71.41,1.1.83,1.16,1.26s-.19.84-.78,1.23l-.34.21-3.39-2a.65.65,0,0,0-.29.72,1.33,1.33,0,0,0,.68.73,3.32,3.32,0,0,0,1.76.45l.21.65a4.59,4.59,0,0,1-1.35-.15A5.28,5.28,0,0,1,808.06,282.84Zm3-2.14a2,2,0,0,0-1-.3,2.24,2.24,0,0,0-1,.22l2.22,1.29.06,0c.25-.2.36-.39.32-.59S811.41,280.89,811.08,280.7Z" style="fill: #719aa7"/>
  </g>
  <line x1="382.46" y1="304.02" x2="210.35" y2="200.29" style="fill: none;stroke: #c879a7;stroke-linecap: round;stroke-miterlimit: 10;stroke-width: 1.4993px"/>
  <line x1="273.95" y1="239.25" x2="273.95" y2="256.6" style="fill: none;stroke: #c879a7;stroke-linecap: round;stroke-miterlimit: 10;stroke-width: 0.74965px"/>
  <polygon points="386.2 306.45 382.67 298.81 371.45 302.72 386.2 306.45" style="fill: #c879a7"/>
  <polygon points="632.44 315.89 651.27 309.22 651.28 320.19 632.44 327.26 632.44 315.89" style="fill: none"/>
  <g>
    <line x1="390.63" y1="343.18" x2="390.63" y2="342.56" style="fill: none;stroke: #719aa7;stroke-miterlimit: 10;stroke-width: 1.4993px"/>
    <line x1="390.63" y1="341.28" x2="390.63" y2="321.52" style="fill: none;stroke: #719aa7;stroke-miterlimit: 10;stroke-width: 1.4993px;stroke-dasharray: 1.2747914791107178,1.2747914791107178"/>
    <line x1="390.63" y1="320.88" x2="390.63" y2="320.26" style="fill: none;stroke: #719aa7;stroke-miterlimit: 10;stroke-width: 1.4993px"/>
    <polygon points="392.87 342.52 390.63 346.41 388.38 342.52 392.87 342.52" style="fill: #719aa7"/>
  </g>
  <g>
    <path d="M799.27,221.65a5.27,5.27,0,0,1-1.22,3.06,6.8,6.8,0,0,1-2.95,2,3.17,3.17,0,0,1-3.18-.17,3.9,3.9,0,0,1-1.2-3.22v-.63a7.32,7.32,0,0,1,.5-2.8,6.33,6.33,0,0,1,1.5-2.29A6.17,6.17,0,0,1,795,216.2a3.65,3.65,0,0,1,2.92-.12,2.54,2.54,0,0,1,1.31,2.2l-2.15.79a1.47,1.47,0,0,0-.58-1.23,1.86,1.86,0,0,0-1.48.09,3,3,0,0,0-1.61,1.35,5.34,5.34,0,0,0-.52,2.56v.77a3.54,3.54,0,0,0,.54,2.25c.35.38.89.44,1.63.17a3.2,3.2,0,0,0,1.48-1,2.79,2.79,0,0,0,.55-1.59Z" style="fill: #719aa7"/>
    <path d="M800.22,220.83a5.48,5.48,0,0,1,.42-2.19,5.32,5.32,0,0,1,1.27-1.85,5.42,5.42,0,0,1,1.93-1.2,3,3,0,0,1,2.58,0,2.52,2.52,0,0,1,1.14,2.15l0,.52a5.47,5.47,0,0,1-3.63,5.23,2.48,2.48,0,0,1-3.73-2.57Zm2.07-.62a2.17,2.17,0,0,0,.44,1.51,1.07,1.07,0,0,0,1.2.13,2.2,2.2,0,0,0,1.17-1,3.85,3.85,0,0,0,.4-2,2.06,2.06,0,0,0-.44-1.49,1.05,1.05,0,0,0-1.2-.15,2.16,2.16,0,0,0-1.17,1A4,4,0,0,0,802.29,220.21Z" style="fill: #719aa7"/>
    <path d="M813.2,214.2a6.71,6.71,0,0,0-.74.22,2.42,2.42,0,0,0-1.54,1.35l.06,5-2.08.77-.09-7.63,2-.72.06.88a3.1,3.1,0,0,1,1.72-1.68,2.09,2.09,0,0,1,.65-.15Z" style="fill: #719aa7"/>
    <path d="M817.85,218.37a3.23,3.23,0,0,1-2.8,0A2.52,2.52,0,0,1,814,216v-.2a5.89,5.89,0,0,1,.43-2.22,5.59,5.59,0,0,1,1.27-1.87,5.33,5.33,0,0,1,1.89-1.18,2.62,2.62,0,0,1,2.52.06,2.86,2.86,0,0,1,1,2.46v.83l-5,1.83a1.22,1.22,0,0,0,.62,1,1.56,1.56,0,0,0,1.29,0,3.57,3.57,0,0,0,1.86-1.54l1,.74a5.11,5.11,0,0,1-1.25,1.48A6.29,6.29,0,0,1,817.85,218.37Zm-.31-6.18a2,2,0,0,0-1,.78,3.1,3.1,0,0,0-.48,1.36l2.89-1.07v-.16a1.07,1.07,0,0,0-.39-.91A1.12,1.12,0,0,0,817.54,212.19Z" style="fill: #719aa7"/>
    <path d="M825.51,211.5a5.65,5.65,0,0,1,.43-2.18,5.34,5.34,0,0,1,1.26-1.85,5.55,5.55,0,0,1,1.94-1.2,3,3,0,0,1,2.58,0,2.56,2.56,0,0,1,1.14,2.16l0,.52a5.49,5.49,0,0,1-3.63,5.23,2.89,2.89,0,0,1-2.7-.07,2.86,2.86,0,0,1-1-2.51Zm2.08-.62a2.16,2.16,0,0,0,.44,1.51,1.07,1.07,0,0,0,1.2.14,2.22,2.22,0,0,0,1.17-1,3.83,3.83,0,0,0,.4-2,2.13,2.13,0,0,0-.44-1.5,1.07,1.07,0,0,0-1.2-.14,2.15,2.15,0,0,0-1.17,1A3.89,3.89,0,0,0,827.59,210.88Z" style="fill: #719aa7"/>
    <path d="M834.77,212l-.07-6.13-1.16.43,0-1.5,1.16-.42v-.65a3.63,3.63,0,0,1,.73-2.27,4.46,4.46,0,0,1,2.09-1.48,5,5,0,0,1,1.06-.25v1.57a2.86,2.86,0,0,0-.63.17,1.53,1.53,0,0,0-1.16,1.52v.62l1.55-.57,0,1.49-1.55.57.07,6.14Z" style="fill: #719aa7"/>
    <path d="M851.79,205.72l-2.16.8,0-4.4-4.2,1.55,0,4.39-2.16.8-.11-10.27,2.15-.79.05,4.16,4.2-1.55,0-4.16,2.16-.79Z" style="fill: #719aa7"/>
    <path d="M853.16,201.31a5.47,5.47,0,0,1,1.69-4,5.55,5.55,0,0,1,1.94-1.2,3,3,0,0,1,2.58,0,2.56,2.56,0,0,1,1.14,2.16l0,.52a5.36,5.36,0,0,1-1,3.18,5.44,5.44,0,0,1-2.66,2,2.49,2.49,0,0,1-3.74-2.58Zm2.08-.62a2.11,2.11,0,0,0,.44,1.51,1.07,1.07,0,0,0,1.2.14,2.22,2.22,0,0,0,1.17-1,3.83,3.83,0,0,0,.4-2,2.18,2.18,0,0,0-.44-1.5,1.07,1.07,0,0,0-1.2-.14,2.11,2.11,0,0,0-1.17,1A3.89,3.89,0,0,0,855.24,200.69Z" style="fill: #719aa7"/>
    <path d="M863.71,193.67l.07.83a4.34,4.34,0,0,1,2.22-1.82c1-.37,1.7-.24,2.08.4a4.29,4.29,0,0,1,2.32-2,1.92,1.92,0,0,1,1.89,0,2.45,2.45,0,0,1,.65,1.94l0,4.88-2.08.76-.06-4.87a1,1,0,0,0-.27-.86c-.17-.13-.48-.12-.91,0a2.09,2.09,0,0,0-1.29,1.35l.07,5.25-2.07.76-.06-4.86a1.09,1.09,0,0,0-.28-.87c-.18-.13-.48-.12-.91,0a2.16,2.16,0,0,0-1.27,1.19l.07,5.41-2.08.76-.09-7.62Z" style="fill: #719aa7"/>
    <path d="M878.16,196.14a3.21,3.21,0,0,1-2.79,0,2.55,2.55,0,0,1-1.11-2.35v-.2a5.7,5.7,0,0,1,.43-2.22A5.59,5.59,0,0,1,876,189.5a5.21,5.21,0,0,1,1.88-1.18,2.63,2.63,0,0,1,2.53.06,2.86,2.86,0,0,1,.94,2.46v.83l-5,1.82a1.23,1.23,0,0,0,.63,1,1.54,1.54,0,0,0,1.28,0,3.6,3.6,0,0,0,1.87-1.55l1,.75a5.28,5.28,0,0,1-1.25,1.48A6.21,6.21,0,0,1,878.16,196.14Zm-.31-6.18a2,2,0,0,0-1,.78,3,3,0,0,0-.48,1.36l2.89-1.07v-.16a1.07,1.07,0,0,0-.39-.91A1.14,1.14,0,0,0,877.85,190Z" style="fill: #719aa7"/>
    <path d="M886.34,186.23l1.92-4.26,2.48-.91-3,6.21,3.18,4-2.5.93-2-2.86-2,4.34-2.5.92L885,188.3l-3.1-4,2.48-.91Z" style="fill: #719aa7"/>
  </g>
  <g>
    <line x1="955.76" y1="348.56" x2="975.87" y2="341.2" style="fill: none;stroke: #719aa7;stroke-linecap: round;stroke-miterlimit: 10;stroke-width: 1.44358px"/>
    <line x1="586.18" y1="126.94" x2="596.18" y2="123.3" style="fill: none;stroke: #719aa7;stroke-linecap: round;stroke-miterlimit: 10;stroke-width: 1.44358px"/>
    <g>
      <polyline points="975.87 341.2 790.01 234.54 596.17 123.3" style="fill: none;stroke: #719aa7;stroke-linecap: round;stroke-miterlimit: 10;stroke-width: 1.44358px"/>
      <line x1="790.6" y1="234.53" x2="890.14" y2="198.05" style="fill: none;stroke: #719aa7;stroke-linecap: round;stroke-miterlimit: 10;stroke-width: 0.72179px"/>
    </g>
  </g>
  <g>
    <path d="M949.64,283.42v-8.85l3.1-1.13a3.74,3.74,0,0,1,2.45-.27,1.42,1.42,0,0,1,.83,1.5,2.64,2.64,0,0,1-.33,1.27,3.51,3.51,0,0,1-.93,1.07,1.27,1.27,0,0,1,1.07.29,1.5,1.5,0,0,1,.39,1.13,3.3,3.3,0,0,1-.81,2.22,5.47,5.47,0,0,1-2.33,1.52Zm1.83-5.81,1.35-.49c.92-.35,1.38-.88,1.38-1.6,0-.4-.12-.65-.35-.74a1.76,1.76,0,0,0-1.11.14l-1.27.46Zm0,1.29v2.39l1.56-.57a2.3,2.3,0,0,0,1-.67,1.5,1.5,0,0,0,.36-1q0-1.21-1.26-.78Z" style="fill: #719aa7"/>
    <path d="M961.41,278.47a3.43,3.43,0,0,1-1.8,1.44,1.69,1.69,0,0,1-1.61,0,1.87,1.87,0,0,1-.57-1.57V274l1.76-.64v4.25q0,1,.93.69a2,2,0,0,0,1.23-1.07v-4.66l1.77-.64v6.58l-1.66.6Z" style="fill: #719aa7"/>
    <path d="M968,274.92a.36.36,0,0,0-.32-.39,3.07,3.07,0,0,0-1,0c-1.56.24-2.35-.14-2.35-1.14a2.71,2.71,0,0,1,.73-1.73,4.43,4.43,0,0,1,1.9-1.27,2.75,2.75,0,0,1,2-.14,1.23,1.23,0,0,1,.75,1.26l-1.75.64a.58.58,0,0,0-.25-.54.92.92,0,0,0-.76,0,1.62,1.62,0,0,0-.68.45.9.9,0,0,0-.25.6.34.34,0,0,0,.28.37,2.49,2.49,0,0,0,.93,0,7.36,7.36,0,0,1,1.11-.11c.93,0,1.39.43,1.39,1.27a2.51,2.51,0,0,1-.77,1.73,5.05,5.05,0,0,1-2,1.29,3.44,3.44,0,0,1-1.47.24,1.56,1.56,0,0,1-1-.45,1.35,1.35,0,0,1-.36-1l1.66-.61a.6.6,0,0,0,.35.59A1.2,1.2,0,0,0,967,276a2,2,0,0,0,.77-.47A.88.88,0,0,0,968,274.92Z" style="fill: #719aa7"/>
    <path d="M970.83,267.43a1.29,1.29,0,0,1,.26-.75,1.56,1.56,0,0,1,.73-.51.83.83,0,0,1,.71,0,.59.59,0,0,1,.27.55,1.24,1.24,0,0,1-.27.76,1.53,1.53,0,0,1-.71.51.86.86,0,0,1-.72,0A.6.6,0,0,1,970.83,267.43Zm1.87,7.6-1.77.64v-6.58l1.77-.64Z" style="fill: #719aa7"/>
    <path d="M975.76,267.34l.06.74a3.66,3.66,0,0,1,1.89-1.57,1.5,1.5,0,0,1,1.55.05,2.11,2.11,0,0,1,.53,1.64v4.25l-1.76.64v-4.22q0-.56-.24-.72a.93.93,0,0,0-.81,0,2,2,0,0,0-1.12,1v4.65l-1.75.64v-6.58Z" style="fill: #719aa7"/>
    <path d="M984.14,271a2.65,2.65,0,0,1-2.35,0,2.2,2.2,0,0,1-.91-2v-.17a5,5,0,0,1,.38-1.91,4.79,4.79,0,0,1,1.09-1.6,4.41,4.41,0,0,1,1.6-1,2.18,2.18,0,0,1,2.12.07,2.49,2.49,0,0,1,.78,2.13v.72l-4.19,1.53a1.05,1.05,0,0,0,.51.84,1.29,1.29,0,0,0,1.09,0,3.07,3.07,0,0,0,1.59-1.32l.86.66a4.52,4.52,0,0,1-1.07,1.26A5.09,5.09,0,0,1,984.14,271Zm-.2-5.34a1.68,1.68,0,0,0-.84.67,2.55,2.55,0,0,0-.42,1.16l2.44-.89v-.14a.94.94,0,0,0-.31-.79A1,1,0,0,0,983.94,265.65Z" style="fill: #719aa7"/>
    <path d="M991.41,266.4a.37.37,0,0,0-.32-.39,3.07,3.07,0,0,0-1,0c-1.57.24-2.35-.14-2.35-1.14a2.61,2.61,0,0,1,.73-1.72,4.3,4.3,0,0,1,1.9-1.28,2.75,2.75,0,0,1,2-.14,1.23,1.23,0,0,1,.75,1.26l-1.76.64a.6.6,0,0,0-.24-.54.92.92,0,0,0-.76,0,1.66,1.66,0,0,0-.69.45,1,1,0,0,0-.24.6.34.34,0,0,0,.28.37,2.12,2.12,0,0,0,.93,0,7.36,7.36,0,0,1,1.11-.11c.92,0,1.39.43,1.39,1.27a2.54,2.54,0,0,1-.77,1.73,5,5,0,0,1-2,1.29,3.42,3.42,0,0,1-1.47.24,1.56,1.56,0,0,1-1-.45,1.32,1.32,0,0,1-.37-1l1.67-.61a.59.59,0,0,0,.35.59,1.2,1.2,0,0,0,.86-.06,2,2,0,0,0,.76-.47A.9.9,0,0,0,991.41,266.4Z" style="fill: #719aa7"/>
    <path d="M997.81,264.07a.36.36,0,0,0-.32-.39,3.07,3.07,0,0,0-1,0c-1.57.24-2.35-.14-2.35-1.14a2.61,2.61,0,0,1,.73-1.72,4.3,4.3,0,0,1,1.9-1.28,2.75,2.75,0,0,1,2-.14,1.23,1.23,0,0,1,.75,1.26l-1.76.64a.61.61,0,0,0-.24-.54.92.92,0,0,0-.76,0,1.73,1.73,0,0,0-.69.45,1,1,0,0,0-.24.6.34.34,0,0,0,.28.37,2.12,2.12,0,0,0,.93,0,7.36,7.36,0,0,1,1.11-.11c.92,0,1.39.43,1.39,1.27a2.54,2.54,0,0,1-.77,1.73,5,5,0,0,1-2,1.29,3.4,3.4,0,0,1-1.46.24,1.51,1.51,0,0,1-1-.45,1.36,1.36,0,0,1-.37-1l1.67-.61a.6.6,0,0,0,.35.59,1.2,1.2,0,0,0,.86-.06,1.9,1.9,0,0,0,.76-.47A.85.85,0,0,0,997.81,264.07Z" style="fill: #719aa7"/>
    <path d="M951.47,294v3.12l-1.83.67V289l3.46-1.26a3.86,3.86,0,0,1,1.75-.27A1.64,1.64,0,0,1,956,288a2.14,2.14,0,0,1,.41,1.38,3.67,3.67,0,0,1-.89,2.38,5.59,5.59,0,0,1-2.46,1.64Zm0-1.47,1.63-.6a2.36,2.36,0,0,0,1.1-.74,1.76,1.76,0,0,0,.38-1.11,1,1,0,0,0-.38-.91,1.13,1.13,0,0,0-1.06,0l-1.67.61Z" style="fill: #719aa7"/>
    <path d="M959.41,294.24l-1.76.64v-9.33l1.76-.65Z" style="fill: #719aa7"/>
    <path d="M964.67,292.33a1.38,1.38,0,0,1-.17-.53,3.37,3.37,0,0,1-1.67,1.32,2,2,0,0,1-1.6,0,1.21,1.21,0,0,1-.63-1.18,2.78,2.78,0,0,1,.77-1.89,5.72,5.72,0,0,1,2.24-1.38l.81-.29V288a.79.79,0,0,0-.23-.64c-.16-.13-.4-.13-.74,0a1.63,1.63,0,0,0-.7.47,1,1,0,0,0-.25.68l-1.76.63a2.33,2.33,0,0,1,.36-1.18,3.86,3.86,0,0,1,1-1.13,5.12,5.12,0,0,1,1.45-.8,2.47,2.47,0,0,1,1.93-.09,1.46,1.46,0,0,1,.72,1.46v2.85a2.52,2.52,0,0,0,.26,1.32v.1Zm-1.45-.69a2.25,2.25,0,0,0,.72-.44,1.92,1.92,0,0,0,.48-.64v-1.13l-.65.24c-.88.32-1.35.79-1.41,1.42v.11a.47.47,0,0,0,.24.45A.76.76,0,0,0,963.22,291.64Z" style="fill: #719aa7"/>
    <path d="M969.64,282.32v1.62l1.12-.41v1.29l-1.12.41v3.28c0,.25,0,.4.14.48s.27.06.53,0a3.66,3.66,0,0,0,.52-.23v1.33a5.35,5.35,0,0,1-1.06.55c-1.24.44-1.86,0-1.89-1.19v-3.54l-1,.35v-1.29l1-.35V283Z" style="fill: #719aa7"/>
    <path d="M972.22,289.58v-5.29l-1,.36v-1.29l1-.36v-.56a3.13,3.13,0,0,1,.64-1.95,3.69,3.69,0,0,1,1.77-1.25,4.6,4.6,0,0,1,.9-.21l0,1.36a1.9,1.9,0,0,0-.53.14,1.31,1.31,0,0,0-1,1.3v.53l1.31-.48v1.29l-1.31.48v5.29Z" style="fill: #719aa7"/>
    <path d="M975.93,284.88a4.86,4.86,0,0,1,.38-1.88,4.65,4.65,0,0,1,2.73-2.6,2.47,2.47,0,0,1,2.17,0,2.23,2.23,0,0,1,.94,1.87v.45a4.74,4.74,0,0,1-.84,2.74,4.68,4.68,0,0,1-2.27,1.74,2.39,2.39,0,0,1-2.27-.09,2.47,2.47,0,0,1-.85-2.17Zm1.76-.51a1.84,1.84,0,0,0,.35,1.3.87.87,0,0,0,1,.13,1.88,1.88,0,0,0,1-.85,3.42,3.42,0,0,0,.35-1.7,1.87,1.87,0,0,0-.35-1.3.88.88,0,0,0-1-.13,1.79,1.79,0,0,0-1,.86A3.4,3.4,0,0,0,977.69,284.37Z" style="fill: #719aa7"/>
    <path d="M986.94,279.29l-.63.18a2.09,2.09,0,0,0-1.31,1.15v4.31l-1.76.64V279l1.66-.6.05.76a2.65,2.65,0,0,1,1.47-1.44,1.89,1.89,0,0,1,.54-.12Z" style="fill: #719aa7"/>
    <path d="M989.43,276.74l.06.71a3.62,3.62,0,0,1,1.89-1.54c.85-.31,1.43-.19,1.74.37a3.64,3.64,0,0,1,2-1.73,1.57,1.57,0,0,1,1.59.05,2.12,2.12,0,0,1,.52,1.68v4.2l-1.76.64v-4.2a.93.93,0,0,0-.22-.74c-.14-.12-.4-.11-.77,0a1.76,1.76,0,0,0-1.09,1.16v4.52l-1.75.64v-4.2a.9.9,0,0,0-.23-.74c-.15-.12-.4-.11-.77,0a1.88,1.88,0,0,0-1.08,1v4.67l-1.75.63v-6.57Z" style="fill: #719aa7"/>
  </g>
  <g>
    <path d="M635.89,87.74l-2.71,1V96.1l-1.82.66V89.39l-2.68,1V88.88l7.21-2.62Z" style="fill: #719aa7"/>
    <path d="M639.85,93.79a2.67,2.67,0,0,1-2.36,0,2.18,2.18,0,0,1-.91-2v-.17a5,5,0,0,1,.38-1.91,4.69,4.69,0,0,1,1.09-1.6,4.57,4.57,0,0,1,1.6-1,2.23,2.23,0,0,1,2.13.08,2.51,2.51,0,0,1,.77,2.13V90l-4.19,1.52a1.05,1.05,0,0,0,.52.85,1.27,1.27,0,0,0,1.08,0A3,3,0,0,0,641.55,91l.86.65a4.56,4.56,0,0,1-1.07,1.27A5.14,5.14,0,0,1,639.85,93.79Zm-.2-5.33a1.74,1.74,0,0,0-.85.66,2.63,2.63,0,0,0-.42,1.17l2.45-.89v-.14a.77.77,0,0,0-1.18-.8Z" style="fill: #719aa7"/>
    <path d="M646.29,90a1.85,1.85,0,0,0,.79-.55,1.37,1.37,0,0,0,.31-.83l1.65-.6a3.06,3.06,0,0,1-.37,1.36,4.06,4.06,0,0,1-1,1.22,4.24,4.24,0,0,1-1.37.81,2.31,2.31,0,0,1-2.23-.09,2.55,2.55,0,0,1-.81-2.18v-.11a4.73,4.73,0,0,1,.8-2.72,4.38,4.38,0,0,1,2.22-1.72,2.34,2.34,0,0,1,2,0,1.71,1.71,0,0,1,.76,1.6l-1.65.6a.85.85,0,0,0-.31-.72.87.87,0,0,0-.81,0,1.65,1.65,0,0,0-.92.78A3.25,3.25,0,0,0,645,88.4v.18a2,2,0,0,0,.31,1.35A.82.82,0,0,0,646.29,90Z" style="fill: #719aa7"/>
    <path d="M651.76,83.48A3.45,3.45,0,0,1,653.51,82c1.43-.52,2.15,0,2.17,1.69v4.22l-1.75.64V84.37a.91.91,0,0,0-.25-.75c-.16-.12-.43-.11-.8,0a1.88,1.88,0,0,0-1.12,1v4.69L650,90V80.64l1.76-.64Z" style="fill: #719aa7"/>
    <path d="M658.63,80.26l0,.74a3.66,3.66,0,0,1,1.89-1.57,1.54,1.54,0,0,1,1.56,0,2.11,2.11,0,0,1,.52,1.64v4.25l-1.76.64V81.79q0-.56-.24-.72c-.16-.11-.43-.1-.81,0a2,2,0,0,0-1.11,1V86.8l-1.76.64V80.86Z" style="fill: #719aa7"/>
    <path d="M663.71,81.64a4.72,4.72,0,0,1,1.46-3.47,4.56,4.56,0,0,1,1.64-1,2.45,2.45,0,0,1,2.18,0,2.21,2.21,0,0,1,.94,1.87v.45a4.63,4.63,0,0,1-.85,2.73A4.54,4.54,0,0,1,666.83,84a2.37,2.37,0,0,1-2.27-.08,2.49,2.49,0,0,1-.85-2.17Zm1.75-.52a1.87,1.87,0,0,0,.36,1.31.89.89,0,0,0,1,.13,1.88,1.88,0,0,0,1-.86,3.38,3.38,0,0,0,.36-1.7,1.84,1.84,0,0,0-.36-1.29.87.87,0,0,0-1-.14,1.83,1.83,0,0,0-1,.87A3.38,3.38,0,0,0,665.46,81.12Z" style="fill: #719aa7"/>
    <path d="M672.88,81.65l-1.77.64V73l1.77-.64Z" style="fill: #719aa7"/>
    <path d="M674.05,77.87a4.71,4.71,0,0,1,3.11-4.48,2.46,2.46,0,0,1,2.17,0,2.2,2.2,0,0,1,.94,1.87v.44a4.74,4.74,0,0,1-.84,2.74,4.68,4.68,0,0,1-2.27,1.74,2.39,2.39,0,0,1-2.27-.09,2.47,2.47,0,0,1-.85-2.17Zm1.76-.51a1.84,1.84,0,0,0,.35,1.3.87.87,0,0,0,1,.13,1.88,1.88,0,0,0,1-.85,3.53,3.53,0,0,0,.35-1.7,1.9,1.9,0,0,0-.35-1.29.88.88,0,0,0-1-.14,1.79,1.79,0,0,0-1,.86A3.43,3.43,0,0,0,675.81,77.36Z" style="fill: #719aa7"/>
    <path d="M681.11,75.32a5.1,5.1,0,0,1,.72-2.7A3.73,3.73,0,0,1,683.77,71a1.6,1.6,0,0,1,1.68.13l.08-.64,1.59-.58v6.36a3.63,3.63,0,0,1-.39,1.64,4.28,4.28,0,0,1-1.11,1.38,5.83,5.83,0,0,1-1.66.94,3.52,3.52,0,0,1-1.41.22,1.62,1.62,0,0,1-1-.37l.78-1.35a1.6,1.6,0,0,0,1.59.16A2.33,2.33,0,0,0,685,78.1a2,2,0,0,0,.39-1.21v-.35a3.21,3.21,0,0,1-1.6,1.27,1.77,1.77,0,0,1-1.92-.23,2.82,2.82,0,0,1-.73-2.19Zm1.76-.52a1.83,1.83,0,0,0,.35,1.28.87.87,0,0,0,1,.15,2,2,0,0,0,1.15-1V72.43c-.24-.32-.62-.38-1.14-.19a1.8,1.8,0,0,0-1,.88A3.43,3.43,0,0,0,682.87,74.8Z" style="fill: #719aa7"/>
    <path d="M690.93,72.59l1.21-4.53,1.89-.69-2.65,8.57-.14.4a3.28,3.28,0,0,1-2,2,3,3,0,0,1-.78.17V77.17l.27-.09a2,2,0,0,0,.74-.43,1.51,1.51,0,0,0,.39-.64l.21-.62-2.31-5.76L689.7,69Z" style="fill: #719aa7"/>
    <path d="M631.06,108.13v3.12l-1.83.66v-8.85l3.45-1.26a3.9,3.9,0,0,1,1.76-.27,1.64,1.64,0,0,1,1.16.61,2.2,2.2,0,0,1,.41,1.38,3.67,3.67,0,0,1-.89,2.38,5.72,5.72,0,0,1-2.47,1.65Zm0-1.48,1.62-.59a2.47,2.47,0,0,0,1.11-.74,1.76,1.76,0,0,0,.38-1.12,1,1,0,0,0-.39-.91,1.17,1.17,0,0,0-1,0l-1.67.61Z" style="fill: #719aa7"/>
    <path d="M639,108.36l-1.76.64V99.66L639,99Z" style="fill: #719aa7"/>
    <path d="M644.26,106.44a1.5,1.5,0,0,1-.18-.52,3.33,3.33,0,0,1-1.66,1.31,1.93,1.93,0,0,1-1.6,0,1.2,1.2,0,0,1-.63-1.17,2.7,2.7,0,0,1,.77-1.89,5.65,5.65,0,0,1,2.24-1.38l.81-.3v-.37a.81.81,0,0,0-.23-.65.76.76,0,0,0-.74,0,1.62,1.62,0,0,0-.7.46,1,1,0,0,0-.25.68l-1.76.64a2.45,2.45,0,0,1,.35-1.19,4,4,0,0,1,1-1.12,5.26,5.26,0,0,1,1.45-.81,2.52,2.52,0,0,1,1.93-.09,1.48,1.48,0,0,1,.71,1.46v2.85a2.62,2.62,0,0,0,.26,1.32v.1Zm-1.45-.69a2.32,2.32,0,0,0,.71-.44,2,2,0,0,0,.49-.64v-1.13l-.66.24c-.88.32-1.35.79-1.4,1.42v.11a.49.49,0,0,0,.23.46A.79.79,0,0,0,642.81,105.75Z" style="fill: #719aa7"/>
    <path d="M649.23,96.44v1.62l1.12-.41v1.29l-1.12.4v3.29c0,.24,0,.4.14.47s.27.06.53,0a4.25,4.25,0,0,0,.52-.23v1.33a4.94,4.94,0,0,1-1.07.55c-1.23.45-1.86.05-1.88-1.18V100l-1,.35V99l1-.35V97.08Z" style="fill: #719aa7"/>
    <path d="M651.81,103.69V98.4l-1,.36V97.47l1-.36v-.55a3.16,3.16,0,0,1,.63-2,3.86,3.86,0,0,1,1.78-1.26,4.44,4.44,0,0,1,.9-.21l0,1.36a3.09,3.09,0,0,0-.54.14,1.32,1.32,0,0,0-1,1.3v.53l1.31-.47v1.29l-1.31.47v5.29Z" style="fill: #719aa7"/>
    <path d="M655.52,99A4.72,4.72,0,0,1,657,95.53a4.72,4.72,0,0,1,1.64-1,2.48,2.48,0,0,1,2.18,0,2.21,2.21,0,0,1,.94,1.87v.44a4.73,4.73,0,0,1-3.11,4.48,2.34,2.34,0,0,1-2.27-.09,2.47,2.47,0,0,1-.85-2.17Zm1.75-.51a1.84,1.84,0,0,0,.36,1.3.87.87,0,0,0,1,.13,1.86,1.86,0,0,0,1-.85,3.38,3.38,0,0,0,.36-1.7,1.84,1.84,0,0,0-.36-1.29.87.87,0,0,0-1-.14,1.79,1.79,0,0,0-1,.87A3.38,3.38,0,0,0,657.27,98.48Z" style="fill: #719aa7"/>
    <path d="M666.53,93.4a5.35,5.35,0,0,0-.63.19,2,2,0,0,0-1.31,1.15V99l-1.76.64V93.1l1.66-.6,0,.77A2.59,2.59,0,0,1,666,91.83a1.89,1.89,0,0,1,.54-.12Z" style="fill: #719aa7"/>
    <path d="M669,90.85l.06.72A3.59,3.59,0,0,1,671,90c.84-.31,1.42-.18,1.74.37a3.59,3.59,0,0,1,2-1.72,1.58,1.58,0,0,1,1.59,0,2.13,2.13,0,0,1,.52,1.69v4.2l-1.76.64V91a.93.93,0,0,0-.22-.74c-.15-.12-.4-.11-.77,0a1.78,1.78,0,0,0-1.1,1.15V96l-1.76.64V92.44c0-.39-.07-.63-.22-.75s-.41-.11-.77,0a1.81,1.81,0,0,0-1.08,1v4.66l-1.76.64V91.45Z" style="fill: #719aa7"/>
  </g>
  <polyline points="895.68 281.32 905.41 277.75 998.44 331.29 998.44 331.29 988.71 334.85" style="fill: none;stroke: #719aa7;stroke-linecap: round;stroke-miterlimit: 10;stroke-width: 0.72179px"/>
  <polygon points="888.87 285.21 900.43 283.49 892.71 279.03 888.87 285.21" style="fill: #719aa7"/>
  <polygon points="981.52 338.82 993.1 337.09 985.35 332.64 981.52 338.82" style="fill: #719aa7"/>
  <polygon points="601.89 121.92 613.46 120.2 605.73 115.74 601.89 121.92" style="fill: #719aa7"/>
  <line x1="603.65" y1="120.95" x2="623.22" y2="113.79" style="fill: none;stroke: #719aa7;stroke-linecap: round;stroke-miterlimit: 10;stroke-width: 0.72179px"/>
  <g>
    <path d="M397,330.78V323.2l2.24-.82a3.31,3.31,0,0,1,1.79-.2,1.82,1.82,0,0,1,1.2.83,3.13,3.13,0,0,1,.43,1.73v.38a4.93,4.93,0,0,1-.43,2.05,5.06,5.06,0,0,1-1.22,1.71,5.41,5.41,0,0,1-1.82,1.11Zm1.32-7v5.46l.86-.31a3.14,3.14,0,0,0,1.59-1.23,3.78,3.78,0,0,0,.57-2.07v-.42a2.11,2.11,0,0,0-.54-1.68,1.49,1.49,0,0,0-1.56-.09Z" style="fill: #585d5c"/>
    <path d="M407.17,327.06a1.47,1.47,0,0,1-.14-.47,3.1,3.1,0,0,1-1.49,1.17,1.66,1.66,0,0,1-1.38,0,1,1,0,0,1-.54-1,2.35,2.35,0,0,1,.67-1.63,4.84,4.84,0,0,1,1.92-1.18l.77-.28v-.37a.72.72,0,0,0-.24-.62.84.84,0,0,0-.75,0,1.75,1.75,0,0,0-.7.48,1,1,0,0,0-.28.65l-1.27.46a1.87,1.87,0,0,1,.31-1,3.35,3.35,0,0,1,.84-.94,4.13,4.13,0,0,1,1.18-.66,2,2,0,0,1,1.58-.07,1.18,1.18,0,0,1,.6,1.17v2.55a2.39,2.39,0,0,0,.21,1.13v.09Zm-1.39-.4a2.15,2.15,0,0,0,.71-.44,2.06,2.06,0,0,0,.49-.67v-1.07l-.68.25a2.73,2.73,0,0,0-1.06.63,1.21,1.21,0,0,0-.35.83.51.51,0,0,0,.24.49A.82.82,0,0,0,405.78,326.66Z" style="fill: #585d5c"/>
    <path d="M411.16,318.6V320l1-.36v.94l-1,.36v3.15a.55.55,0,0,0,.13.42c.09.06.24,0,.46,0a2.49,2.49,0,0,0,.44-.21v1a4.4,4.4,0,0,1-.83.43c-1,.35-1.46,0-1.46-1.08v-3.2l-.93.34v-.94l.93-.34v-1.37Z" style="fill: #585d5c"/>
    <path d="M416.49,323.67a1.67,1.67,0,0,1-.14-.47,3.2,3.2,0,0,1-1.48,1.17,1.72,1.72,0,0,1-1.39,0,1,1,0,0,1-.53-1,2.3,2.3,0,0,1,.67-1.62,4.62,4.62,0,0,1,1.91-1.18l.78-.29v-.37a.69.69,0,0,0-.25-.61.82.82,0,0,0-.74,0,1.7,1.7,0,0,0-.71.47,1,1,0,0,0-.28.65l-1.26.46a1.94,1.94,0,0,1,.3-1,3.53,3.53,0,0,1,.84-.94,4.26,4.26,0,0,1,1.18-.66,2,2,0,0,1,1.58-.08,1.2,1.2,0,0,1,.6,1.18V322a2.26,2.26,0,0,0,.22,1.13v.09Zm-1.39-.41a2.24,2.24,0,0,0,1.21-1.11v-1.06l-.69.25a2.68,2.68,0,0,0-1.05.63,1.16,1.16,0,0,0-.36.82.5.5,0,0,0,.24.49A.78.78,0,0,0,415.1,323.26Z" style="fill: #585d5c"/>
  </g>
  <g>
    <path d="M488.36,385.41v-7.58l2.24-.82a3.27,3.27,0,0,1,1.78-.2,1.86,1.86,0,0,1,1.21.83,3.24,3.24,0,0,1,.42,1.73v.38a5,5,0,0,1-.43,2.06,4.89,4.89,0,0,1-1.22,1.7,5.41,5.41,0,0,1-1.82,1.11Zm1.31-7v5.46l.86-.31a3.11,3.11,0,0,0,1.6-1.23,3.75,3.75,0,0,0,.56-2.06v-.42a2.12,2.12,0,0,0-.54-1.69,1.52,1.52,0,0,0-1.55-.09Z" style="fill: #585d5c"/>
    <path d="M498.57,381.7a1.65,1.65,0,0,1-.14-.48,3.08,3.08,0,0,1-1.48,1.17,1.68,1.68,0,0,1-1.39,0,1,1,0,0,1-.53-1,2.34,2.34,0,0,1,.67-1.63,4.73,4.73,0,0,1,1.91-1.18l.78-.28V378a.68.68,0,0,0-.25-.61.76.76,0,0,0-.74,0,1.61,1.61,0,0,0-.71.47,1,1,0,0,0-.28.65l-1.26.46a2,2,0,0,1,.3-1,3.87,3.87,0,0,1,.84-.94,4,4,0,0,1,1.18-.65,2,2,0,0,1,1.58-.08,1.2,1.2,0,0,1,.6,1.18V380a2.28,2.28,0,0,0,.22,1.14v.09Zm-1.39-.41a2.15,2.15,0,0,0,.71-.44,2,2,0,0,0,.5-.67v-1.06l-.68.24a2.91,2.91,0,0,0-1.06.63,1.18,1.18,0,0,0-.36.83.5.5,0,0,0,.25.49A.76.76,0,0,0,497.18,381.29Z" style="fill: #585d5c"/>
    <path d="M502.57,373.23v1.37l1-.36v.94l-1,.36v3.15a.54.54,0,0,0,.12.42.53.53,0,0,0,.46,0,3,3,0,0,0,.44-.22v1a4.12,4.12,0,0,1-.83.43c-1,.35-1.46,0-1.46-1.08V376l-.93.34v-.94l.93-.33v-1.38Z" style="fill: #585d5c"/>
    <path d="M507.9,378.3a1.21,1.21,0,0,1-.15-.47,3.08,3.08,0,0,1-1.48,1.17,1.69,1.69,0,0,1-1.38,0,1,1,0,0,1-.54-1,2.3,2.3,0,0,1,.67-1.62,4.62,4.62,0,0,1,1.91-1.18l.78-.28v-.37a.7.7,0,0,0-.25-.62.82.82,0,0,0-.74,0,1.79,1.79,0,0,0-.71.48,1,1,0,0,0-.27.65l-1.27.46a1.87,1.87,0,0,1,.31-1,3.33,3.33,0,0,1,.83-.94,4.26,4.26,0,0,1,1.18-.66,2.1,2.1,0,0,1,1.58-.08,1.22,1.22,0,0,1,.61,1.18v2.55a2.39,2.39,0,0,0,.21,1.13v.09Zm-1.39-.4a2.27,2.27,0,0,0,1.2-1.11v-1.07L507,376a2.73,2.73,0,0,0-1.06.63,1.16,1.16,0,0,0-.35.82.52.52,0,0,0,.24.5A.86.86,0,0,0,506.51,377.9Z" style="fill: #585d5c"/>
  </g>
  <g>
    <line x1="481.55" y1="395.99" x2="481.55" y2="395.36" style="fill: none;stroke: #719aa7;stroke-miterlimit: 10;stroke-width: 1.4993px"/>
    <line x1="481.55" y1="394.15" x2="481.55" y2="375.4" style="fill: none;stroke: #719aa7;stroke-miterlimit: 10;stroke-width: 1.4993px;stroke-dasharray: 1.2102313041687012,1.2102313041687012"/>
    <line x1="481.55" y1="374.79" x2="481.55" y2="374.17" style="fill: none;stroke: #719aa7;stroke-miterlimit: 10;stroke-width: 1.4993px"/>
    <polygon points="483.8 395.33 481.55 399.22 479.31 395.33 483.8 395.33" style="fill: #719aa7"/>
  </g>
  <g>
    <path d="M262.83,264.49l-1.25-.75v-5.06l-4.76-2.84v5.06l-1.25-.74v-11l1.25.74v4.71l4.76,2.84v-4.71l1.25.75Z" style="fill: #c879a7"/>
    <path d="M269.2,268.28a4.31,4.31,0,0,1-.17-1,1.86,1.86,0,0,1-2-.18,5,5,0,0,1-1.71-1.7,4,4,0,0,1-.66-2.12c0-.85.28-1.34.83-1.48a3.44,3.44,0,0,1,2.35.7l1.17.69v-.64a2.73,2.73,0,0,0-.38-1.38,3,3,0,0,0-1.11-1.1,1.45,1.45,0,0,0-1.08-.26c-.29.07-.43.29-.43.65l-1.21-.72a1.27,1.27,0,0,1,.37-1,1.31,1.31,0,0,1,1-.3,3.48,3.48,0,0,1,1.4.51,5.41,5.41,0,0,1,1.9,1.84,4.62,4.62,0,0,1,.72,2.36V267a6.83,6.83,0,0,0,.24,1.93V269Zm-2-2.25a1.77,1.77,0,0,0,1.07.3.85.85,0,0,0,.74-.44v-1.67l-.94-.56c-1.48-.88-2.21-.82-2.21.18a2.23,2.23,0,0,0,.38,1.25A2.87,2.87,0,0,0,267.2,266Z" style="fill: #c879a7"/>
    <path d="M274.91,270.7a1.32,1.32,0,0,0,1.12.22.82.82,0,0,0,.53-.81l1.14.68a1.6,1.6,0,0,1-.42,1.08,1.32,1.32,0,0,1-1,.4,2.66,2.66,0,0,1-1.35-.43,6,6,0,0,1-2.28-2.47,7.46,7.46,0,0,1-.85-3.54v-.24a3.92,3.92,0,0,1,.38-1.89,1.38,1.38,0,0,1,1.08-.79,2.68,2.68,0,0,1,1.66.48,5.66,5.66,0,0,1,2,2,5.42,5.42,0,0,1,.84,2.63l-1.14-.68a3.46,3.46,0,0,0-.51-1.6,3.32,3.32,0,0,0-1.15-1.2c-.61-.36-1.08-.39-1.42-.08a2.67,2.67,0,0,0-.5,1.91v.27a5.75,5.75,0,0,0,.5,2.46A3.57,3.57,0,0,0,274.91,270.7Z" style="fill: #c879a7"/>
    <path d="M281,271.56l-.75.46v2.86l-1.21-.72V262.6l1.21.72v7l.64-.51,2.19-1.38,1.46.87-2.74,1.78,3.05,6.56-1.4-.84Z" style="fill: #c879a7"/>
    <path d="M222.77,251l-2.59-1.54L219.6,251l-.84-.5,2.36-5.76.71.43,2.37,8.58-.84-.5Zm-2.34-2.17,2.1,1.25-1.05-4Z" style="fill: #c879a7"/>
    <path d="M228.79,253.84a2.29,2.29,0,0,1-.48,1.68c-.32.3-.75.29-1.3,0a3.35,3.35,0,0,1-1.34-1.51l0,.59-.72-.43v-7.56l.78.47v2.82c.32-.27.76-.24,1.31.09a3.41,3.41,0,0,1,1.32,1.52,5.3,5.3,0,0,1,.47,2.29Zm-.78-.57a3.87,3.87,0,0,0-.31-1.62,2.23,2.23,0,0,0-.89-1c-.52-.31-.89-.25-1.12.17v2.3a2.64,2.64,0,0,0,1.13,1.51c.37.23.67.23.88,0A2.05,2.05,0,0,0,228,253.27Z" style="fill: #c879a7"/>
    <path d="M232.46,257.22a1.24,1.24,0,0,0-.24-.72,5,5,0,0,0-.84-.85,6.89,6.89,0,0,1-.94-.92,2.94,2.94,0,0,1-.52-.8,2,2,0,0,1-.17-.78.77.77,0,0,1,.48-.82,1.51,1.51,0,0,1,1.22.27,3.71,3.71,0,0,1,1.26,1.23,2.69,2.69,0,0,1,.49,1.48l-.79-.47a1.56,1.56,0,0,0-.27-.81,2.24,2.24,0,0,0-.69-.68.9.9,0,0,0-.67-.18q-.24.08-.24.42a1,1,0,0,0,.22.63,6,6,0,0,0,.81.81,8.64,8.64,0,0,1,1,.93,3.44,3.44,0,0,1,.54.83,2.2,2.2,0,0,1,.17.83c0,.48-.16.76-.49.85a1.75,1.75,0,0,1-1.28-.33,4.18,4.18,0,0,1-1-.81,3.82,3.82,0,0,1-.67-1,2.6,2.6,0,0,1-.24-1l.79.47a1.81,1.81,0,0,0,.31.92,2.48,2.48,0,0,0,.78.73,1.2,1.2,0,0,0,.72.22C232.37,257.58,232.46,257.45,232.46,257.22Z" style="fill: #c879a7"/>
    <path d="M235.33,253.73V255l.86.51v.7l-.86-.51V259a1.18,1.18,0,0,0,.12.55.91.91,0,0,0,.39.39,1.93,1.93,0,0,0,.37.16v.74a2.66,2.66,0,0,1-.6-.26,2,2,0,0,1-.8-.85,2.59,2.59,0,0,1-.27-1.2v-3.31l-.83-.49v-.71l.83.5v-1.29Z" style="fill: #c879a7"/>
    <path d="M239.32,258.22a2.84,2.84,0,0,0-.38-.27c-.52-.3-.87-.26-1.05.14v3.78l-.79-.47v-5.32l.77.45v.62c.26-.32.62-.34,1.1-.06a1.75,1.75,0,0,1,.34.28Z" style="fill: #c879a7"/>
    <path d="M242.88,264.85a2.92,2.92,0,0,1-.11-.63,1.23,1.23,0,0,1-1.31-.12,3.27,3.27,0,0,1-1.11-1.11,2.64,2.64,0,0,1-.44-1.39c0-.55.19-.88.55-1a2.26,2.26,0,0,1,1.53.46l.77.45v-.41a1.76,1.76,0,0,0-.25-.91,1.91,1.91,0,0,0-.72-.72,1,1,0,0,0-.71-.17.38.38,0,0,0-.28.42l-.79-.47a.81.81,0,0,1,.24-.62.8.8,0,0,1,.66-.19,2.1,2.1,0,0,1,.92.33,3.51,3.51,0,0,1,1.25,1.2,3,3,0,0,1,.46,1.55V264a4.65,4.65,0,0,0,.16,1.26v.08Zm-1.3-1.47a1.2,1.2,0,0,0,.7.19.54.54,0,0,0,.48-.29v-1.09l-.62-.37q-1.44-.85-1.44.12a1.46,1.46,0,0,0,.25.82A1.87,1.87,0,0,0,241.58,263.38Z" style="fill: #c879a7"/>
    <path d="M246.62,266.43a.86.86,0,0,0,.73.14.55.55,0,0,0,.35-.53l.74.44a1.06,1.06,0,0,1-.27.71.83.83,0,0,1-.67.26,1.68,1.68,0,0,1-.88-.28,4,4,0,0,1-1.5-1.61,4.93,4.93,0,0,1-.55-2.32v-.15a2.58,2.58,0,0,1,.25-1.24.91.91,0,0,1,.7-.52,1.76,1.76,0,0,1,1.09.32,3.63,3.63,0,0,1,1.28,1.3,3.42,3.42,0,0,1,.55,1.72l-.74-.44a2.53,2.53,0,0,0-.34-1.06,2.06,2.06,0,0,0-.75-.77q-.6-.36-.93-.06a1.72,1.72,0,0,0-.32,1.25v.17a3.67,3.67,0,0,0,.32,1.61A2.32,2.32,0,0,0,246.62,266.43Z" style="fill: #c879a7"/>
    <path d="M250.39,262.71V264l.86.51v.7l-.86-.51V268a1.31,1.31,0,0,0,.11.55,1,1,0,0,0,.39.39,2.06,2.06,0,0,0,.38.16v.74a3,3,0,0,1-.61-.26,2,2,0,0,1-.79-.85,2.59,2.59,0,0,1-.27-1.2v-3.31l-.83-.49V263l.83.5v-1.29Z" style="fill: #c879a7"/>
    <path d="M255.1,267.45c.35-.29.8-.26,1.36.07a3,3,0,0,1,1.46,2.78v3.52l-.78-.47v-3.52a2,2,0,0,0-.23-1,1.9,1.9,0,0,0-.69-.69.91.91,0,0,0-.67-.16.68.68,0,0,0-.45.35v3.79l-.79-.47v-7.55l.79.46Z" style="fill: #c879a7"/>
    <path d="M261.94,276.21a2.32,2.32,0,0,1-.11-.63,1.19,1.19,0,0,1-1.31-.12,3.3,3.3,0,0,1-1.12-1.11A2.61,2.61,0,0,1,259,273c0-.56.18-.88.54-1a2.25,2.25,0,0,1,1.54.45l.76.46v-.42a1.85,1.85,0,0,0-.24-.91,2.07,2.07,0,0,0-.73-.71.93.93,0,0,0-.7-.18.39.39,0,0,0-.29.43l-.79-.47a.79.79,0,0,1,.25-.63.83.83,0,0,1,.66-.19,2.15,2.15,0,0,1,.92.33,3.66,3.66,0,0,1,1.24,1.2,3,3,0,0,1,.47,1.55v2.45a4.24,4.24,0,0,0,.16,1.26v.08Zm-1.31-1.47a1.23,1.23,0,0,0,.7.2.59.59,0,0,0,.48-.29v-1.1l-.61-.36c-1-.58-1.45-.54-1.45.12a1.54,1.54,0,0,0,.25.81A2,2,0,0,0,260.63,274.74Z" style="fill: #c879a7"/>
    <path d="M266.05,274.15a3.77,3.77,0,0,0-.39-.26c-.51-.31-.86-.26-1.05.14v3.78l-.78-.47V272l.76.46,0,.62c.25-.32.62-.34,1.09-.06a1.53,1.53,0,0,1,.35.28Z" style="fill: #c879a7"/>
    <path d="M266.58,276.27a2.22,2.22,0,0,1,.5-1.67c.33-.3.77-.28,1.31,0a3.41,3.41,0,0,1,1.28,1.4v-2.78l.78.47v7.56l-.72-.43,0-.59c-.31.25-.75.22-1.31-.12a3.44,3.44,0,0,1-1.3-1.53,5.28,5.28,0,0,1-.5-2.28Zm.78.57a3.73,3.73,0,0,0,.33,1.61,2.27,2.27,0,0,0,.89,1.05c.5.3.86.25,1.09-.13v-2.45a2.62,2.62,0,0,0-1.08-1.39c-.39-.23-.69-.24-.9,0A1.91,1.91,0,0,0,267.36,276.84Z" style="fill: #c879a7"/>
    <path d="M275.74,283.19l.88-3.55.79.47-1.34,4.53-.64-.38-1.11-4.7L273.23,283l-.64-.38-1.33-6.12.78.46.9,4.53,1.07-3.35.64.38Z" style="fill: #c879a7"/>
    <path d="M281,287.6a2.8,2.8,0,0,1-.11-.62,1.23,1.23,0,0,1-1.31-.12,3.27,3.27,0,0,1-1.11-1.11,2.66,2.66,0,0,1-.44-1.39c0-.56.18-.88.55-1a2.21,2.21,0,0,1,1.53.46l.77.45v-.42a1.82,1.82,0,0,0-.25-.9,2,2,0,0,0-.73-.72.88.88,0,0,0-.7-.17.38.38,0,0,0-.29.42l-.78-.47a.8.8,0,0,1,.24-.62.84.84,0,0,1,.66-.2,2.24,2.24,0,0,1,.92.33,3.6,3.6,0,0,1,1.24,1.21,3,3,0,0,1,.47,1.54v2.45a4.36,4.36,0,0,0,.16,1.27v.07Zm-1.3-1.47a1.19,1.19,0,0,0,.7.2.56.56,0,0,0,.48-.29V285l-.62-.37q-1.44-.87-1.44.12a1.52,1.52,0,0,0,.24.81A1.9,1.9,0,0,0,279.74,286.13Z" style="fill: #c879a7"/>
    <path d="M285.15,285.55a3.83,3.83,0,0,0-.39-.27c-.51-.3-.86-.26-1,.14v3.78l-.79-.47v-5.32l.76.45,0,.62c.25-.32.62-.34,1.09-.06a1.58,1.58,0,0,1,.35.28Z" style="fill: #c879a7"/>
    <path d="M287.78,291.72a4.18,4.18,0,0,1-1.52-1.62,4.56,4.56,0,0,1-.59-2.25v-.16a2.63,2.63,0,0,1,.26-1.26,1,1,0,0,1,.73-.54,1.49,1.49,0,0,1,1,.25,3.63,3.63,0,0,1,1.39,1.51,5,5,0,0,1,.5,2.26v.38l-3.11-1.86a3.29,3.29,0,0,0,.39,1.51,2.64,2.64,0,0,0,1,1.06,1.27,1.27,0,0,0,.7.23A.85.85,0,0,0,289,291l.48.72C289.12,292.18,288.55,292.18,287.78,291.72Zm-.1-4.83a.73.73,0,0,0-.8-.08,1.18,1.18,0,0,0-.4.89l2.3,1.37V289a3,3,0,0,0-.32-1.26A2,2,0,0,0,287.68,286.89Z" style="fill: #c879a7"/>
    <path d="M293.37,289.63l0,.6c.33-.25.79-.21,1.36.13a2.89,2.89,0,0,1,1.31,1.64.81.81,0,0,1,.6-.27,1.65,1.65,0,0,1,.87.28,3.08,3.08,0,0,1,1.53,2.77v3.57l-.78-.47v-3.51a2.07,2.07,0,0,0-.23-1,2,2,0,0,0-.75-.73.8.8,0,0,0-.73-.13.68.68,0,0,0-.33.61v3.54l-.79-.47v-3.49a1.91,1.91,0,0,0-1-1.75c-.52-.31-.87-.26-1.06.13V295l-.79-.47v-5.32Z" style="fill: #c879a7"/>
    <path d="M300,296.22a2.61,2.61,0,0,1,.26-1.25,1,1,0,0,1,.74-.52,1.72,1.72,0,0,1,1.08.3,4.16,4.16,0,0,1,1.52,1.66,4.93,4.93,0,0,1,.58,2.35v.06a2.61,2.61,0,0,1-.26,1.25.93.93,0,0,1-.73.52,1.74,1.74,0,0,1-1.1-.31,4,4,0,0,1-1.51-1.65,4.94,4.94,0,0,1-.58-2.34Zm.79.58a3.89,3.89,0,0,0,.35,1.64,2.52,2.52,0,0,0,.95,1.1c.4.24.72.24.95,0a1.79,1.79,0,0,0,.35-1.31,3.92,3.92,0,0,0-.35-1.64,2.52,2.52,0,0,0-1-1.11c-.39-.23-.7-.24-.94,0A1.83,1.83,0,0,0,300.83,296.8Z" style="fill: #c879a7"/>
    <path d="M305,299.19a2.22,2.22,0,0,1,.5-1.67c.34-.3.77-.28,1.31,0a3.35,3.35,0,0,1,1.28,1.4v-2.78l.79.47v7.56l-.72-.43,0-.59c-.32.26-.75.22-1.31-.12a3.35,3.35,0,0,1-1.31-1.53,5.28,5.28,0,0,1-.5-2.28Zm.79.58a3.92,3.92,0,0,0,.32,1.61,2.29,2.29,0,0,0,.89,1c.5.3.86.25,1.09-.13v-2.44a2.52,2.52,0,0,0-1.08-1.4c-.39-.23-.69-.24-.9,0A2,2,0,0,0,305.8,299.77Z" style="fill: #c879a7"/>
    <path d="M312,306.17a4.22,4.22,0,0,1-1.52-1.61,4.61,4.61,0,0,1-.58-2.26v-.16a2.51,2.51,0,0,1,.26-1.26,1,1,0,0,1,.73-.54,1.54,1.54,0,0,1,1,.25,3.6,3.6,0,0,1,1.39,1.52,4.78,4.78,0,0,1,.5,2.25v.38l-3.11-1.85a3.24,3.24,0,0,0,.4,1.51,2.59,2.59,0,0,0,1,1.05,1.27,1.27,0,0,0,.71.23.85.85,0,0,0,.5-.22l.48.72C313.36,306.63,312.78,306.63,312,306.17Zm-.1-4.83a.71.71,0,0,0-.79-.07,1.11,1.11,0,0,0-.4.88l2.3,1.37v-.06a3,3,0,0,0-.33-1.27A2.07,2.07,0,0,0,311.91,301.34Z" style="fill: #c879a7"/>
    <path d="M315.56,308.19l-.78-.47v-7.56l.78.47Z" style="fill: #c879a7"/>
    <path d="M319.49,309.12a1.24,1.24,0,0,0-.24-.71,4.88,4.88,0,0,0-.83-.85,8.51,8.51,0,0,1-.95-.92,3.6,3.6,0,0,1-.52-.8,2,2,0,0,1-.16-.78.77.77,0,0,1,.47-.83,1.52,1.52,0,0,1,1.22.28,3.8,3.8,0,0,1,1.27,1.22,2.8,2.8,0,0,1,.49,1.49l-.79-.47a1.58,1.58,0,0,0-.28-.81,2,2,0,0,0-.69-.68,1,1,0,0,0-.67-.19c-.16.05-.24.19-.24.43a1,1,0,0,0,.22.63,6.31,6.31,0,0,0,.82.8,9.44,9.44,0,0,1,.95.93,3.69,3.69,0,0,1,.54.84,2,2,0,0,1,.18.83c0,.47-.17.76-.49.85a1.74,1.74,0,0,1-1.28-.33,4.23,4.23,0,0,1-1-.81,3.92,3.92,0,0,1-.66-1,2.59,2.59,0,0,1-.24-1l.78.47a1.79,1.79,0,0,0,.32.91,2.37,2.37,0,0,0,.78.73,1.1,1.1,0,0,0,.71.22C319.4,309.49,319.49,309.36,319.49,309.12Z" style="fill: #c879a7"/>
  </g>
  <path d="M393.91,350.82a3.53,3.53,0,1,1-3.52-3.53A3.53,3.53,0,0,1,393.91,350.82Z" style="fill: #bad2e1;stroke: #719aa7;stroke-miterlimit: 10"/>
  <path d="M484.45,405.55a3.53,3.53,0,1,1-3.52-3.52A3.52,3.52,0,0,1,484.45,405.55Z" style="fill: #bad2e1;stroke: #719aa7;stroke-miterlimit: 10"/>
  <path d="M570.26,457.46a3.53,3.53,0,1,1-3.52-3.53A3.53,3.53,0,0,1,570.26,457.46Z" style="fill: #bad2e1;stroke: #719aa7;stroke-miterlimit: 10"/>
  <path d="M671,518.64a3.53,3.53,0,1,1-3.52-3.53A3.53,3.53,0,0,1,671,518.64Z" style="fill: #bad2e1;stroke: #719aa7;stroke-miterlimit: 10"/>
</svg>
